<svg width="77" height="70" viewBox="0 0 77 70" fill="none" xmlns="http://www.w3.org/2000/svg">
<path d="M33 52.7873H32.7873H29.2127V50.7017C29.2127 49.8793 29.8793 49.2127 30.7017 49.2127H46.2983C47.1207 49.2127 47.7873 49.8793 47.7873 50.7017V52.7873H44.2127H44H33ZM67 52.7873H48.2127V50.7017C48.2127 50.1003 47.9354 49.5637 47.5017 49.2127H67C70.4312 49.2127 73.2127 46.4312 73.2127 43V42.4551H75H75.2127V42.2424V38.2424V38.0297H75H73.2127V10C73.2127 6.56882 70.4312 3.78729 67 3.78729H10C6.56882 3.78729 3.78729 6.56882 3.78729 10V38.0297H2H1.78729V38.2424V42.2424V42.4551H2H3.78729V43C3.78729 46.4312 6.56882 49.2127 10 49.2127H29.4983C29.0646 49.5637 28.7873 50.1003 28.7873 50.7017V52.7873H10C4.59463 52.7873 0.212707 48.4054 0.212707 43V10C0.212707 4.59463 4.59463 0.212707 10 0.212707H67C72.4054 0.212707 76.7873 4.59463 76.7873 10V43C76.7873 48.4054 72.4054 52.7873 67 52.7873ZM74.7873 42.0297H73.2127V38.4551H74.7873V42.0297ZM72.7873 38.4551V42.0297H4.21271V38.4551H72.7873ZM2.21271 38.4551H3.78729V42.0297H2.21271V38.4551ZM44.2127 53.2127H47.7873V59.7873H44.2127V53.2127ZM44.2127 60.2127H47.7873V62.2983C47.7873 63.1207 47.1207 63.7873 46.2983 63.7873H30.7017C29.8793 63.7873 29.2127 63.1207 29.2127 62.2983V60.2127H32.7873H33H44H44.2127ZM29.4983 63.7873H25.5C24.1874 63.7873 23.0929 64.7194 22.8416 65.9577L22.7898 66.2127H23.05H53.95H54.2102L54.1584 65.9577C53.9071 64.7194 52.8126 63.7873 51.5 63.7873H47.5017C47.9354 63.4363 48.2127 62.8997 48.2127 62.2983V60.2127H51.5C54.9724 60.2127 57.7873 63.0276 57.7873 66.5V67.0221C57.7873 68.5493 56.5493 69.7873 55.0221 69.7873H21.9779C20.4507 69.7873 19.2127 68.5493 19.2127 67.0221V66.5C19.2127 63.0276 22.0276 60.2127 25.5 60.2127H28.7873V62.2983C28.7873 62.8997 29.0646 63.4363 29.4983 63.7873ZM32.7873 59.7873H29.2127V53.2127H32.7873V59.7873ZM34.2127 45.6212C34.2127 44.9103 34.789 44.3339 35.5 44.3339H40.5C41.211 44.3339 41.7873 44.9103 41.7873 45.6212C41.7873 46.3322 41.211 46.9085 40.5 46.9085H35.5C34.789 46.9085 34.2127 46.3322 34.2127 45.6212Z" fill="url(#paint0_linear_1882_4546)" stroke="url(#paint1_linear_1882_4546)" stroke-width="0.425414"/>
<path d="M47.5385 13.741C45.9698 12.1008 43.6616 11.6197 41.6587 12.297C40.8478 12.5713 40.1248 13.0567 39.5194 13.6621L37.173 16.0085C36.8662 16.3153 36.6693 16.7252 36.6626 17.159C36.6548 17.6862 36.4449 18.2107 36.0318 18.6062C35.2604 19.3448 34.0086 19.3558 33.2254 18.6301C32.368 17.8359 32.3489 16.4962 33.1676 15.6775C33.5522 15.2925 34.052 15.094 34.5558 15.0799C34.902 15.0702 35.2358 14.9486 35.4808 14.7036L35.5629 14.6215C36.5348 13.65 35.8357 11.9617 34.4616 12.0027C33.0777 12.0441 31.706 12.5928 30.6496 13.6492C28.4501 15.8487 28.4501 19.4152 30.6496 21.6147L31.0838 22.0489L32.3301 23.2952C33.4502 24.4152 35.2663 24.4152 36.3859 23.2952L41.0307 18.6504C41.3902 18.2908 41.5907 17.809 41.6224 17.3017C41.6533 16.8097 41.8604 16.3266 42.2453 15.9561C43.0164 15.2136 44.2713 15.2007 45.0564 15.928C45.9135 16.7221 45.9326 18.0614 45.1143 18.8802C44.7754 19.219 44.3475 19.4136 43.9059 19.4652C43.4236 19.5215 42.9668 19.7106 42.6236 20.0538L37.4524 25.225C36.5708 26.1066 36.5708 27.5362 37.4524 28.4179C38.3341 29.2996 39.7637 29.2996 40.6454 28.4179L47.0144 22.0489L47.3685 21.6948C49.5461 19.5172 49.6668 15.9671 47.5385 13.7414V13.741Z" fill="url(#paint2_linear_1882_4546)"/>
<path d="M43.6239 18.5259C44.1799 18.5259 44.6306 18.0752 44.6306 17.5192C44.6306 16.9632 44.1799 16.5125 43.6239 16.5125C43.0679 16.5125 42.6172 16.9632 42.6172 17.5192C42.6172 18.0752 43.0679 18.5259 43.6239 18.5259Z" fill="url(#paint3_linear_1882_4546)"/>
<path d="M34.6903 18.1806C35.2463 18.1806 35.697 17.7298 35.697 17.1738C35.697 16.6178 35.2463 16.1671 34.6903 16.1671C34.1343 16.1671 33.6836 16.6178 33.6836 17.1738C33.6836 17.7298 34.1343 18.1806 34.6903 18.1806Z" fill="url(#paint4_linear_1882_4546)"/>
<path d="M44.1383 23.2682C44.1383 23.2682 43.7905 26.5584 46.1471 27.9872C46.5613 28.2385 46.4456 28.8626 45.9692 28.9506C44.1891 29.2792 41.3303 29.2054 40.0039 25.8894" fill="url(#paint5_linear_1882_4546)"/>
<defs>
<linearGradient id="paint0_linear_1882_4546" x1="1.32759" y1="68.0556" x2="79.4124" y2="60.8185" gradientUnits="userSpaceOnUse">
<stop stop-color="#9E54BB"/>
<stop offset="1" stop-color="#FE6283"/>
</linearGradient>
<linearGradient id="paint1_linear_1882_4546" x1="-27.7441" y1="119.026" x2="129.703" y2="-49.1085" gradientUnits="userSpaceOnUse">
<stop stop-color="#8350CB"/>
<stop offset="1" stop-color="#FE6283"/>
</linearGradient>
<linearGradient id="paint2_linear_1882_4546" x1="21.7685" y1="41.0409" x2="59.9348" y2="-2.49953" gradientUnits="userSpaceOnUse">
<stop stop-color="#8350CB"/>
<stop offset="1" stop-color="#FE6283"/>
</linearGradient>
<linearGradient id="paint3_linear_1882_4546" x1="41.8917" y1="19.9361" x2="46.4282" y2="15.532" gradientUnits="userSpaceOnUse">
<stop stop-color="#8350CB"/>
<stop offset="1" stop-color="#FE6283"/>
</linearGradient>
<linearGradient id="paint4_linear_1882_4546" x1="32.9581" y1="19.5907" x2="37.4946" y2="15.1867" gradientUnits="userSpaceOnUse">
<stop stop-color="#8350CB"/>
<stop offset="1" stop-color="#FE6283"/>
</linearGradient>
<linearGradient id="paint5_linear_1882_4546" x1="37.6989" y1="33.1487" x2="50.768" y2="19.1807" gradientUnits="userSpaceOnUse">
<stop stop-color="#8350CB"/>
<stop offset="1" stop-color="#FE6283"/>
</linearGradient>
</defs>
</svg>
