<svg width="271" height="70" viewBox="0 0 271 70" fill="none" xmlns="http://www.w3.org/2000/svg">
<g clip-path="url(#clip0_1883_2338)">
<path d="M73.4139 6.8748C67.2211 0.398035 58.1067 -1.5024 50.1991 1.1735C46.999 2.25478 44.1429 4.1716 41.751 6.56352L32.4891 15.8254C31.2767 17.0378 30.5013 18.6542 30.474 20.369C30.4412 22.4496 29.6166 24.5193 27.9837 26.0812C24.9365 28.9974 19.9943 29.0411 16.9033 26.174C13.5175 23.0394 13.441 17.7477 16.674 14.5148C18.1921 12.9966 20.1636 12.2102 22.1568 12.1556C23.5221 12.1174 24.8436 11.6368 25.8102 10.6702L26.1324 10.348C29.9715 6.51437 27.2083 -0.153528 21.7855 0.0103029C16.319 0.174133 10.9071 2.34216 6.73492 6.50891C-1.9481 15.1919 -1.9481 29.2759 6.73492 37.9589L8.44968 39.6737L13.3701 44.594C17.7935 49.0175 24.9638 49.0175 29.3872 44.594L47.7253 26.2559C49.1452 24.8361 49.937 22.9356 50.0626 20.9315C50.1828 18.9873 51.0019 17.0814 52.5201 15.6179C55.5619 12.6853 60.5205 12.6362 63.6169 15.5087C67.0027 18.6433 67.0791 23.935 63.8462 27.1679C62.5083 28.5059 60.8208 29.2759 59.0733 29.4779C57.1674 29.7018 55.3653 30.4445 54.0109 31.8043L33.5922 52.2231C30.1135 55.7017 30.1135 61.3484 33.5922 64.8271C37.0709 68.3058 42.7176 68.3058 46.1962 64.8271L71.3442 39.6791L72.7422 38.2811C81.3379 29.68 81.8184 15.667 73.4139 6.88026V6.8748Z" fill="url(#paint0_linear_1883_2338)"/>
<path d="M57.9561 25.7701C60.1518 25.7701 61.9317 23.9901 61.9317 21.7945C61.9317 19.5988 60.1518 17.8188 57.9561 17.8188C55.7604 17.8188 53.9805 19.5988 53.9805 21.7945C53.9805 23.9901 55.7604 25.7701 57.9561 25.7701Z" fill="url(#paint1_linear_1883_2338)"/>
<path d="M22.6905 24.4049C24.8861 24.4049 26.6661 22.6249 26.6661 20.4292C26.6661 18.2336 24.8861 16.4536 22.6905 16.4536C20.4948 16.4536 18.7148 18.2336 18.7148 20.4292C18.7148 22.6249 20.4948 24.4049 22.6905 24.4049Z" fill="url(#paint2_linear_1883_2338)"/>
<path d="M59.9925 44.4902C59.9925 44.4902 58.6163 57.482 67.9219 63.1232C69.5547 64.1171 69.1015 66.58 67.2174 66.9295C60.1891 68.2293 48.9012 67.9344 43.6641 54.8443" fill="url(#paint3_linear_1883_2338)"/>
<path d="M88.2031 27.638L90.1522 23.4389C91.9509 24.6007 94.6906 25.388 97.1645 25.388C99.8658 25.388 100.877 24.6743 100.877 23.5509C100.877 20.2512 88.6896 23.6245 88.6896 15.5625C88.6896 11.7378 92.1397 9.03662 98.0287 9.03662C100.804 9.03662 103.879 9.67352 105.793 10.8001L103.844 14.964C101.856 13.8374 99.869 13.4629 98.0319 13.4629C95.4075 13.4629 94.2809 14.2887 94.2809 15.3384C94.2809 18.7886 106.468 15.4504 106.468 23.4005C106.468 27.1515 102.98 29.8143 96.9437 29.8143C93.532 29.8143 90.0818 28.8766 88.2063 27.638H88.2031Z" fill="#271A2B"/>
<path d="M141.977 9.33789V20.4757C141.977 26.3998 138.639 29.8147 132.602 29.8147C129.828 29.8147 127.539 29.0658 125.965 26.9631C124.428 28.989 122.214 29.8147 119.288 29.8147C113.214 29.8147 109.949 26.403 109.949 20.4757V9.33789H115.8V20.0244C115.8 23.3625 116.888 24.8988 119.362 24.8988C121.836 24.8988 123.036 23.3625 123.036 20.0244V9.33789H128.887V20.0244C128.887 23.3625 130.087 24.8988 132.561 24.8988C135.035 24.8988 136.123 23.3625 136.123 20.0244V9.33789H141.973H141.977Z" fill="#271A2B"/>
<path d="M147.227 9.33789H153.077V29.5139H147.227V9.33789Z" fill="#271A2B"/>
<path d="M180.49 19.4255C180.49 25.7625 176.102 29.8143 170.441 29.8143C167.928 29.8143 165.864 29.027 164.366 27.3755V36.7882H158.516V9.33747H164.104V11.661C165.566 9.89756 167.743 9.03662 170.441 9.03662C176.102 9.03662 180.49 13.0885 180.49 19.4255ZM174.563 19.4255C174.563 15.9369 172.351 13.8374 169.426 13.8374C166.501 13.8374 164.289 15.9369 164.289 19.4255C164.289 22.914 166.501 25.0136 169.426 25.0136C172.351 25.0136 174.563 22.914 174.563 19.4255Z" fill="#271A2B"/>
<path d="M199.613 23.1765L202.723 26.553C200.848 28.6909 198.035 29.8143 194.399 29.8143C187.425 29.8143 182.887 25.4264 182.887 19.4255C182.887 13.4245 187.463 9.03662 193.688 9.03662C199.389 9.03662 204.077 12.7876 204.112 19.2366L189.185 22.1235C190.049 24.111 191.922 25.1224 194.549 25.1224C196.687 25.1224 198.224 24.4855 199.613 23.1733V23.1765ZM188.625 18.827L198.451 16.9131C197.887 14.8519 196.127 13.4629 193.688 13.4629C190.763 13.4629 188.737 15.412 188.625 18.827Z" fill="#271A2B"/>
<path d="M228.374 9.33767V26.1371C228.374 33.6359 224.437 37.0893 217.387 37.0893C213.674 37.0893 210.074 36.1515 207.75 34.3144L210.074 30.1154C211.76 31.5012 214.385 32.3653 216.9 32.3653C220.837 32.3653 222.527 30.5282 222.527 26.8893V26.2139C220.99 27.7502 218.888 28.5375 216.564 28.5375C211.501 28.5375 207.939 25.7243 207.939 19.4609V9.33447H213.789V18.5967C213.789 22.0085 215.29 23.5095 217.876 23.5095C220.462 23.5095 222.527 21.7844 222.527 18.0719V9.33447H228.377L228.374 9.33767Z" fill="#271A2B"/>
<path d="M254.286 9.33747V29.5135H248.698V27.1899C247.236 28.9534 245.098 29.8143 242.397 29.8143C236.696 29.8143 232.309 25.7625 232.309 19.4255C232.309 13.0885 236.696 9.03662 242.397 9.03662C244.871 9.03662 246.973 9.82395 248.436 11.4754V9.33747H254.286ZM248.548 19.4255C248.548 15.9369 246.298 13.8374 243.411 13.8374C240.524 13.8374 238.236 15.9369 238.236 19.4255C238.236 22.914 240.486 25.0136 243.411 25.0136C246.336 25.0136 248.548 22.914 248.548 19.4255Z" fill="url(#paint4_linear_1883_2338)"/>
<path d="M258.973 3.26327C258.973 1.42618 260.435 0.00195312 262.612 0.00195312C264.788 0.00195312 266.251 1.35257 266.251 3.15125C266.251 5.10036 264.788 6.52459 262.612 6.52459C260.435 6.52459 258.973 5.10036 258.973 3.26327ZM259.686 9.33783H265.537V29.5138H259.686V9.33783Z" fill="url(#paint5_linear_1883_2338)"/>
<path d="M149.867 7.50839C151.941 7.50839 153.622 5.82758 153.622 3.75419C153.622 1.68081 151.941 0 149.867 0C147.794 0 146.113 1.68081 146.113 3.75419C146.113 5.82758 147.794 7.50839 149.867 7.50839Z" fill="url(#paint6_linear_1883_2338)"/>
<path d="M90.5112 62.0889V46.7015H96.5123C97.8605 46.7015 99.0109 46.914 99.9635 47.339C100.916 47.764 101.649 48.3795 102.162 49.1855C102.675 49.9915 102.931 50.9514 102.931 52.0651C102.931 53.1789 102.675 54.1387 102.162 54.9447C101.649 55.7361 100.916 56.3516 99.9635 56.7912C99.0109 57.2162 97.8605 57.4287 96.5123 57.4287H91.7202L92.7094 56.3955V62.0889H90.5112ZM92.7094 56.6154L91.7202 55.5163H96.4463C97.8532 55.5163 98.9156 55.2159 99.6337 54.615C100.366 54.0142 100.733 53.1642 100.733 52.0651C100.733 50.966 100.366 50.116 99.6337 49.5152C98.9156 48.9144 97.8532 48.6139 96.4463 48.6139H91.7202L92.7094 47.5149V56.6154ZM103.058 62.0889L110.026 46.7015H112.202L119.192 62.0889H116.884L110.663 47.9325H111.543L105.322 62.0889H103.058ZM106.025 58.242L106.619 56.4835H115.28L115.917 58.242H106.025ZM121.488 62.0889V46.7015H127.489C128.837 46.7015 129.987 46.914 130.94 47.339C131.892 47.764 132.625 48.3795 133.138 49.1855C133.651 49.9915 133.907 50.9514 133.907 52.0651C133.907 53.1789 133.651 54.1387 133.138 54.9447C132.625 55.7361 131.892 56.3443 130.94 56.7692C129.987 57.1942 128.837 57.4067 127.489 57.4067H122.697L123.686 56.3955V62.0889H121.488ZM131.775 62.0889L127.862 56.5055H130.215L134.171 62.0889H131.775ZM123.686 56.6154L122.697 55.5383H127.423C128.83 55.5383 129.892 55.2378 130.61 54.637C131.343 54.0215 131.709 53.1642 131.709 52.0651C131.709 50.966 131.343 50.116 130.61 49.5152C129.892 48.9144 128.83 48.6139 127.423 48.6139H122.697L123.686 47.5149V56.6154ZM140.3 62.0889V48.6139H135.024V46.7015H147.752V48.6139H142.476V62.0889H140.3ZM150.146 62.0889V46.7015H151.948L162.126 59.3411H161.181V46.7015H163.379V62.0889H161.576L151.399 49.4493H152.344V62.0889H150.146ZM169.985 53.3401H177.898V55.2085H169.985V53.3401ZM170.183 60.1764H179.151V62.0889H167.985V46.7015H178.844V48.6139H170.183V60.1764ZM182.711 62.0889V46.7015H188.712C190.06 46.7015 191.21 46.914 192.163 47.339C193.116 47.764 193.848 48.3795 194.361 49.1855C194.874 49.9915 195.131 50.9514 195.131 52.0651C195.131 53.1789 194.874 54.1387 194.361 54.9447C193.848 55.7361 193.116 56.3443 192.163 56.7692C191.21 57.1942 190.06 57.4067 188.712 57.4067H183.92L184.909 56.3955V62.0889H182.711ZM192.998 62.0889L189.086 56.5055H191.438L195.394 62.0889H192.998ZM184.909 56.6154L183.92 55.5383H188.646C190.053 55.5383 191.115 55.2378 191.833 54.637C192.566 54.0215 192.932 53.1642 192.932 52.0651C192.932 50.966 192.566 50.116 191.833 49.5152C191.115 48.9144 190.053 48.6139 188.646 48.6139H183.92L184.909 47.5149V56.6154ZM203.166 62.2647C201.994 62.2647 200.873 62.0889 199.803 61.7372C198.733 61.3708 197.891 60.9018 197.275 60.3303L198.089 58.6157C198.675 59.1286 199.422 59.5536 200.331 59.8907C201.239 60.2277 202.184 60.3963 203.166 60.3963C204.06 60.3963 204.786 60.2937 205.343 60.0885C205.899 59.8833 206.31 59.6049 206.574 59.2532C206.837 58.8868 206.969 58.4765 206.969 58.0222C206.969 57.4946 206.793 57.0697 206.442 56.7473C206.105 56.4249 205.658 56.1684 205.101 55.9779C204.559 55.7727 203.958 55.5969 203.298 55.4503C202.639 55.3038 201.972 55.1353 201.298 54.9447C200.638 54.7396 200.03 54.4831 199.473 54.1754C198.931 53.8676 198.492 53.4573 198.154 52.9444C197.817 52.4168 197.649 51.7427 197.649 50.922C197.649 50.1307 197.854 49.4053 198.264 48.7458C198.689 48.0717 199.334 47.5368 200.199 47.1412C201.078 46.7308 202.192 46.5257 203.54 46.5257C204.434 46.5257 205.321 46.6429 206.2 46.8774C207.079 47.1118 207.841 47.4489 208.486 47.8885L207.761 49.6471C207.101 49.2075 206.405 48.8924 205.672 48.7019C204.94 48.4967 204.229 48.3941 203.54 48.3941C202.675 48.3941 201.965 48.504 201.408 48.7239C200.851 48.9437 200.441 49.2368 200.177 49.6031C199.928 49.9695 199.803 50.3798 199.803 50.8341C199.803 51.3763 199.972 51.8087 200.309 52.1311C200.66 52.4535 201.107 52.7099 201.65 52.9004C202.206 53.0909 202.815 53.2668 203.474 53.428C204.134 53.5745 204.793 53.7431 205.452 53.9336C206.127 54.1241 206.735 54.3732 207.277 54.681C207.834 54.9887 208.281 55.399 208.618 55.9119C208.955 56.4249 209.123 57.0843 209.123 57.8903C209.123 58.667 208.911 59.3924 208.486 60.0665C208.061 60.726 207.402 61.2609 206.508 61.6712C205.628 62.0669 204.515 62.2647 203.166 62.2647Z" fill="#271A2B"/>
</g>
<defs>
<linearGradient id="paint0_linear_1883_2338" x1="6.22158" y1="58.2138" x2="57.9647" y2="2.91556" gradientUnits="userSpaceOnUse">
<stop stop-color="#8350CB"/>
<stop offset="1" stop-color="#FE6283"/>
</linearGradient>
<linearGradient id="paint1_linear_1883_2338" x1="15.6387" y1="67.0226" x2="67.3763" y2="11.7244" gradientUnits="userSpaceOnUse">
<stop stop-color="#8350CB"/>
<stop offset="1" stop-color="#FE6283"/>
</linearGradient>
<linearGradient id="paint2_linear_1883_2338" x1="-3.85007" y1="48.7937" x2="47.893" y2="-6.5045" gradientUnits="userSpaceOnUse">
<stop stop-color="#8350CB"/>
<stop offset="1" stop-color="#FE6283"/>
</linearGradient>
<linearGradient id="paint3_linear_1883_2338" x1="34.5715" y1="83.5037" x2="86.1671" y2="28.3529" gradientUnits="userSpaceOnUse">
<stop stop-color="#8350CB"/>
<stop offset="1" stop-color="#FE6283"/>
</linearGradient>
<linearGradient id="paint4_linear_1883_2338" x1="235.816" y1="32.8388" x2="255.221" y2="6.23617" gradientUnits="userSpaceOnUse">
<stop stop-color="#8350CB"/>
<stop offset="1" stop-color="#FE6283"/>
</linearGradient>
<linearGradient id="paint5_linear_1883_2338" x1="244.99" y1="39.5314" x2="264.394" y2="12.9288" gradientUnits="userSpaceOnUse">
<stop stop-color="#8350CB"/>
<stop offset="1" stop-color="#FE6283"/>
</linearGradient>
<linearGradient id="paint6_linear_1883_2338" x1="139.879" y1="19.0014" x2="158.378" y2="-9.23668" gradientUnits="userSpaceOnUse">
<stop stop-color="#8350CB"/>
<stop offset="1" stop-color="#FE6283"/>
</linearGradient>
<clipPath id="clip0_1883_2338">
<rect width="271" height="69.9355" fill="white"/>
</clipPath>
</defs>
</svg>
