<svg width="141" height="38" viewBox="0 0 141 38" fill="none" xmlns="http://www.w3.org/2000/svg">
<g clip-path="url(#clip0_1883_2489)">
<path d="M38.1982 4.38369C34.9762 1.01386 30.234 0.025072 26.1197 1.41733C24.4547 1.97991 22.9687 2.97722 21.7242 4.22173L16.9052 9.04064C16.2745 9.67142 15.871 10.5125 15.8568 11.4046C15.8397 12.4872 15.4107 13.5641 14.5611 14.3767C12.9757 15.894 10.4043 15.9167 8.79606 14.425C7.03443 12.7941 6.99465 10.0408 8.67672 8.35872C9.46662 7.56883 10.4923 7.15968 11.5294 7.13126C12.2398 7.11137 12.9274 6.86134 13.4303 6.35842L13.5979 6.19078C15.5954 4.19616 14.1577 0.726883 11.3362 0.812123C8.49204 0.897363 5.67627 2.02538 3.50549 4.19332C-1.01225 8.71105 -1.01225 16.0389 3.50549 20.5566L4.39767 21.4488L6.95771 24.0088C9.2592 26.3103 12.9899 26.3103 15.2914 24.0088L24.8326 14.4676C25.5713 13.7289 25.9833 12.7401 26.0487 11.6973C26.1112 10.6858 26.5374 9.69415 27.3273 8.93267C28.9099 7.40687 31.4898 7.3813 33.1009 8.87585C34.8625 10.5068 34.9023 13.26 33.2202 14.9421C32.5241 15.6382 31.6461 16.0389 30.7369 16.144C29.7453 16.2605 28.8076 16.6469 28.103 17.3544L17.4792 27.9782C15.6693 29.7881 15.6693 32.7261 17.4792 34.536C19.2891 36.3459 22.2271 36.3459 24.037 34.536L37.1214 21.4516L37.8488 20.7242C42.321 16.2491 42.5711 8.95825 38.1982 4.38653V4.38369Z" fill="url(#paint0_linear_1883_2489)"/>
<path d="M30.1544 14.2148C31.2968 14.2148 32.2229 13.2887 32.2229 12.1463C32.2229 11.0039 31.2968 10.0779 30.1544 10.0779C29.012 10.0779 28.0859 11.0039 28.0859 12.1463C28.0859 13.2887 29.012 14.2148 30.1544 14.2148Z" fill="url(#paint1_linear_1883_2489)"/>
<path d="M11.8068 13.5041C12.9492 13.5041 13.8753 12.5781 13.8753 11.4357C13.8753 10.2933 12.9492 9.36716 11.8068 9.36716C10.6644 9.36716 9.73828 10.2933 9.73828 11.4357C9.73828 12.5781 10.6644 13.5041 11.8068 13.5041Z" fill="url(#paint2_linear_1883_2489)"/>
<path d="M31.2144 23.9549C31.2144 23.9549 30.4983 30.7145 35.34 33.6496C36.1895 34.1667 35.9537 35.4481 34.9734 35.63C31.3166 36.3062 25.4436 36.1528 22.7188 29.3421" fill="url(#paint3_linear_1883_2489)"/>
<path d="M45.8945 15.1865L46.9086 13.0018C47.8445 13.6062 49.2699 14.0159 50.5571 14.0159C51.9625 14.0159 52.4888 13.6445 52.4888 13.0601C52.4888 11.3432 46.1476 13.0984 46.1476 8.90369C46.1476 6.91377 47.9427 5.50833 51.0067 5.50833C52.4505 5.50833 54.0507 5.83971 55.0465 6.42586L54.0324 8.5923C52.9983 8.00614 51.9642 7.81131 51.0084 7.81131C49.6429 7.81131 49.0568 8.24094 49.0568 8.78713C49.0568 10.5822 55.3979 8.84541 55.3979 12.9818C55.3979 14.9334 53.5828 16.3189 50.4422 16.3189C48.6671 16.3189 46.872 15.831 45.8962 15.1865H45.8945Z" fill="white"/>
<path d="M73.8747 5.66507V11.46C73.8747 14.5423 72.1379 16.3191 68.9973 16.3191C67.5535 16.3191 66.3629 15.9294 65.5436 14.8354C64.7443 15.8894 63.592 16.3191 62.07 16.3191C58.9095 16.3191 57.2109 14.544 57.2109 11.46V5.66507H60.2549V11.2252C60.2549 12.962 60.8211 13.7613 62.1083 13.7613C63.3955 13.7613 64.02 12.962 64.02 11.2252V5.66507H67.064V11.2252C67.064 12.962 67.6884 13.7613 68.9756 13.7613C70.2628 13.7613 70.829 12.962 70.829 11.2252V5.66507H73.873H73.8747Z" fill="white"/>
<path d="M76.6055 5.66507H79.6495V16.1625H76.6055V5.66507Z" fill="white"/>
<path d="M93.9099 10.9136C93.9099 14.2107 91.6269 16.3189 88.6811 16.3189C87.3739 16.3189 86.2999 15.9092 85.5206 15.05V19.9474H82.4766V5.66486H85.384V6.8738C86.145 5.95627 87.2774 5.50833 88.6811 5.50833C91.6269 5.50833 93.9099 7.61649 93.9099 10.9136ZM90.8259 10.9136C90.8259 9.09852 89.6753 8.00614 88.1533 8.00614C86.6313 8.00614 85.4806 9.09852 85.4806 10.9136C85.4806 12.7287 86.6313 13.8211 88.1533 13.8211C89.6753 13.8211 90.8259 12.7287 90.8259 10.9136Z" fill="white"/>
<path d="M103.859 12.8652L105.477 14.622C104.501 15.7344 103.038 16.3189 101.146 16.3189C97.5175 16.3189 95.1562 14.0359 95.1562 10.9136C95.1562 7.79133 97.5375 5.50833 100.776 5.50833C103.742 5.50833 106.182 7.45996 106.2 10.8154L98.4334 12.3174C98.883 13.3515 99.8571 13.8777 101.224 13.8777C102.337 13.8777 103.136 13.5463 103.859 12.8636V12.8652ZM98.142 10.6022L103.254 9.60641C102.961 8.53402 102.045 7.81131 100.776 7.81131C99.2543 7.81131 98.2002 8.82543 98.142 10.6022Z" fill="white"/>
<path d="M118.824 5.66515V14.4058C118.824 18.3074 116.776 20.1042 113.108 20.1042C111.176 20.1042 109.303 19.6163 108.094 18.6604L109.303 16.4757C110.18 17.1967 111.546 17.6463 112.855 17.6463C114.903 17.6463 115.782 16.6905 115.782 14.7972V14.4458C114.983 15.2451 113.889 15.6547 112.68 15.6547C110.045 15.6547 108.192 14.191 108.192 10.9322V5.66348H111.236V10.4826C111.236 12.2577 112.017 13.0387 113.362 13.0387C114.708 13.0387 115.782 12.1411 115.782 10.2095V5.66348H118.826L118.824 5.66515Z" fill="white"/>
<path d="M132.306 5.66486V16.1623H129.399V14.9534C128.638 15.8709 127.525 16.3189 126.12 16.3189C123.154 16.3189 120.871 14.2107 120.871 10.9136C120.871 7.61649 123.154 5.50833 126.12 5.50833C127.407 5.50833 128.501 5.91797 129.262 6.77722V5.66486H132.306ZM129.32 10.9136C129.32 9.09852 128.15 8.00614 126.648 8.00614C125.146 8.00614 123.955 9.09852 123.955 10.9136C123.955 12.7287 125.126 13.8211 126.648 13.8211C128.17 13.8211 129.32 12.7287 129.32 10.9136Z" fill="url(#paint4_linear_1883_2489)"/>
<path d="M134.746 2.5045C134.746 1.54867 135.507 0.807648 136.639 0.807648C137.772 0.807648 138.533 1.51037 138.533 2.44621C138.533 3.46032 137.772 4.20134 136.639 4.20134C135.507 4.20134 134.746 3.46032 134.746 2.5045ZM135.117 5.66506H138.161V16.1625H135.117V5.66506Z" fill="url(#paint5_linear_1883_2489)"/>
<path d="M77.9806 4.71359C79.0594 4.71359 79.9339 3.83907 79.9339 2.7603C79.9339 1.68152 79.0594 0.807007 77.9806 0.807007C76.9019 0.807007 76.0273 1.68152 76.0273 2.7603C76.0273 3.83907 76.9019 4.71359 77.9806 4.71359Z" fill="url(#paint6_linear_1883_2489)"/>
<path d="M47.0954 35.104V27.098H50.2178C50.9192 27.098 51.5178 27.2086 52.0134 27.4297C52.509 27.6508 52.8902 27.971 53.1571 28.3904C53.4239 28.8097 53.5574 29.3092 53.5574 29.8886C53.5574 30.4681 53.4239 30.9675 53.1571 31.3869C52.8902 31.7986 52.509 32.1189 52.0134 32.3476C51.5178 32.5687 50.9192 32.6793 50.2178 32.6793H47.7245L48.2391 32.1418V35.104H47.0954ZM48.2391 32.2561L47.7245 31.6843H50.1834C50.9154 31.6843 51.4682 31.528 51.8418 31.2153C52.2231 30.9027 52.4137 30.4605 52.4137 29.8886C52.4137 29.3168 52.2231 28.8746 51.8418 28.5619C51.4682 28.2493 50.9154 28.093 50.1834 28.093H47.7245L48.2391 27.5212V32.2561ZM53.6232 35.104L57.2488 27.098H58.3811L62.0181 35.104H60.8172L57.5805 27.7385H58.038L54.8013 35.104H53.6232ZM55.1672 33.1025L55.476 32.1875H59.9823L60.3139 33.1025H55.1672ZM63.2123 35.104V27.098H66.3347C67.0361 27.098 67.6347 27.2086 68.1303 27.4297C68.6259 27.6508 69.0071 27.971 69.274 28.3904C69.5409 28.8097 69.6743 29.3092 69.6743 29.8886C69.6743 30.4681 69.5409 30.9675 69.274 31.3869C69.0071 31.7986 68.6259 32.1151 68.1303 32.3362C67.6347 32.5573 67.0361 32.6679 66.3347 32.6679H63.8414L64.356 32.1418V35.104H63.2123ZM68.5649 35.104L66.5291 32.1989H67.7529L69.8115 35.104H68.5649ZM64.356 32.2561L63.8414 31.6957H66.3004C67.0323 31.6957 67.5851 31.5394 67.9587 31.2268C68.34 30.9065 68.5306 30.4605 68.5306 29.8886C68.5306 29.3168 68.34 28.8746 67.9587 28.5619C67.5851 28.2493 67.0323 28.093 66.3004 28.093H63.8414L64.356 27.5212V32.2561ZM73.0002 35.104V28.093H70.2553V27.098H76.8773V28.093H74.1324V35.104H73.0002ZM78.123 35.104V27.098H79.0608L84.3562 33.6743H83.8644V27.098H85.0081V35.104H84.0703L78.7749 28.5276H79.2667V35.104H78.123ZM88.4452 30.552H92.5626V31.5241H88.4452V30.552ZM88.5482 34.1089H93.2145V35.104H87.4045V27.098H93.0544V28.093H88.5482V34.1089ZM95.0664 35.104V27.098H98.1887C98.8902 27.098 99.4888 27.2086 99.9844 27.4297C100.48 27.6508 100.861 27.971 101.128 28.3904C101.395 28.8097 101.528 29.3092 101.528 29.8886C101.528 30.4681 101.395 30.9675 101.128 31.3869C100.861 31.7986 100.48 32.1151 99.9844 32.3362C99.4888 32.5573 98.8902 32.6679 98.1887 32.6679H95.6955L96.2101 32.1418V35.104H95.0664ZM100.419 35.104L98.3832 32.1989H99.6069L101.666 35.104H100.419ZM96.2101 32.2561L95.6955 31.6957H98.1544C98.8864 31.6957 99.4392 31.5394 99.8128 31.2268C100.194 30.9065 100.385 30.4605 100.385 29.8886C100.385 29.3168 100.194 28.8746 99.8128 28.5619C99.4392 28.2493 98.8864 28.093 98.1544 28.093H95.6955L96.2101 27.5212V32.2561ZM105.709 35.1955C105.099 35.1955 104.516 35.104 103.959 34.921C103.403 34.7303 102.964 34.4864 102.644 34.189L103.067 33.2969C103.372 33.5638 103.761 33.7849 104.234 33.9602C104.707 34.1356 105.198 34.2233 105.709 34.2233C106.174 34.2233 106.552 34.1699 106.842 34.0632C107.131 33.9564 107.345 33.8116 107.482 33.6286C107.619 33.438 107.688 33.2245 107.688 32.9881C107.688 32.7136 107.596 32.4925 107.413 32.3247C107.238 32.157 107.006 32.0236 106.716 31.9244C106.434 31.8177 106.121 31.7262 105.778 31.65C105.435 31.5737 105.088 31.486 104.737 31.3869C104.394 31.2802 104.078 31.1467 103.788 30.9866C103.506 30.8265 103.277 30.613 103.102 30.3461C102.926 30.0716 102.839 29.7209 102.839 29.2939C102.839 28.8822 102.945 28.5048 103.159 28.1616C103.38 27.8109 103.715 27.5326 104.165 27.3267C104.623 27.1132 105.202 27.0065 105.904 27.0065C106.369 27.0065 106.83 27.0675 107.288 27.1895C107.745 27.3115 108.142 27.4869 108.477 27.7156L108.1 28.6306C107.757 28.4018 107.394 28.2379 107.013 28.1388C106.632 28.032 106.262 27.9787 105.904 27.9787C105.454 27.9787 105.084 28.0358 104.794 28.1502C104.505 28.2646 104.291 28.4171 104.154 28.6077C104.024 28.7983 103.959 29.0118 103.959 29.2482C103.959 29.5303 104.047 29.7552 104.223 29.923C104.406 30.0907 104.638 30.2241 104.92 30.3233C105.21 30.4224 105.526 30.5139 105.869 30.5977C106.213 30.674 106.556 30.7617 106.899 30.8608C107.25 30.9599 107.566 31.0895 107.848 31.2497C108.138 31.4098 108.37 31.6233 108.546 31.8901C108.721 32.157 108.809 32.5001 108.809 32.9195C108.809 33.3236 108.698 33.701 108.477 34.0517C108.256 34.3949 107.913 34.6732 107.448 34.8867C106.99 35.0925 106.411 35.1955 105.709 35.1955Z" fill="white"/>
</g>
<defs>
<linearGradient id="paint0_linear_1883_2489" x1="3.2384" y1="31.0951" x2="30.1601" y2="2.32371" gradientUnits="userSpaceOnUse">
<stop stop-color="#8350CB"/>
<stop offset="1" stop-color="#FE6283"/>
</linearGradient>
<linearGradient id="paint1_linear_1883_2489" x1="8.13689" y1="35.6783" x2="35.0557" y2="6.90692" gradientUnits="userSpaceOnUse">
<stop stop-color="#8350CB"/>
<stop offset="1" stop-color="#FE6283"/>
</linearGradient>
<linearGradient id="paint2_linear_1883_2489" x1="-2.00214" y1="26.1936" x2="24.9196" y2="-2.57784" gradientUnits="userSpaceOnUse">
<stop stop-color="#8350CB"/>
<stop offset="1" stop-color="#FE6283"/>
</linearGradient>
<linearGradient id="paint3_linear_1883_2489" x1="17.9879" y1="44.2535" x2="44.8329" y2="15.5588" gradientUnits="userSpaceOnUse">
<stop stop-color="#8350CB"/>
<stop offset="1" stop-color="#FE6283"/>
</linearGradient>
<linearGradient id="paint4_linear_1883_2489" x1="122.696" y1="17.8925" x2="132.792" y2="4.05127" gradientUnits="userSpaceOnUse">
<stop stop-color="#8350CB"/>
<stop offset="1" stop-color="#FE6283"/>
</linearGradient>
<linearGradient id="paint5_linear_1883_2489" x1="127.471" y1="21.3746" x2="137.567" y2="7.5334" gradientUnits="userSpaceOnUse">
<stop stop-color="#8350CB"/>
<stop offset="1" stop-color="#FE6283"/>
</linearGradient>
<linearGradient id="paint6_linear_1883_2489" x1="72.7835" y1="10.6933" x2="82.4084" y2="-3.99879" gradientUnits="userSpaceOnUse">
<stop stop-color="#8350CB"/>
<stop offset="1" stop-color="#FE6283"/>
</linearGradient>
<clipPath id="clip0_1883_2489">
<rect width="141" height="36.3871" fill="white" transform="translate(0 0.806641)"/>
</clipPath>
</defs>
</svg>
