<svg width="122" height="32" viewBox="0 0 122 32" fill="none" xmlns="http://www.w3.org/2000/svg">
<g clip-path="url(#clip0_1_889)">
<path d="M33.0506 3.09493C30.2627 0.179189 26.1596 -0.676356 22.5997 0.528291C21.1591 1.01507 19.8733 1.87799 18.7965 2.9548L14.6269 7.12435C14.0811 7.67013 13.732 8.39784 13.7197 9.16979C13.705 10.1065 13.3338 11.0382 12.5987 11.7413C11.2269 13.0542 9.00195 13.0738 7.61045 11.7831C6.08621 10.372 6.05179 7.98973 7.5072 6.53432C8.19065 5.85087 9.07816 5.49685 9.9755 5.47226C10.5901 5.45505 11.1851 5.23871 11.6202 4.80356L11.7653 4.65851C13.4936 2.93267 12.2496 -0.0691158 9.80832 0.00463819C7.3474 0.0783921 4.91106 1.0544 3.03279 2.93021C-0.876166 6.83917 -0.876166 13.1796 3.03279 17.0885L3.80475 17.8605L6.01983 20.0755C8.01118 22.0669 11.2391 22.0669 13.2305 20.0755L21.486 11.82C22.1252 11.1808 22.4817 10.3253 22.5383 9.42302C22.5923 8.5478 22.9611 7.6898 23.6446 7.03093C25.0139 5.71073 27.2462 5.68861 28.6402 6.98176C30.1644 8.39292 30.1988 10.7752 28.7434 12.2306C28.1411 12.8329 27.3814 13.1796 26.5947 13.2705C25.7367 13.3713 24.9254 13.7057 24.3157 14.3178L15.1235 23.51C13.5575 25.0761 13.5575 27.6181 15.1235 29.1842C16.6896 30.7502 19.2316 30.7502 20.7977 29.1842L32.1189 17.8629L32.7483 17.2336C36.6179 13.3615 36.8342 7.05306 33.0506 3.09739V3.09493Z" fill="url(#paint0_linear_1_889)"/>
<path d="M26.091 11.601C27.0795 11.601 27.8808 10.7997 27.8808 9.81125C27.8808 8.82279 27.0795 8.02148 26.091 8.02148C25.1026 8.02148 24.3013 8.82279 24.3013 9.81125C24.3013 10.7997 25.1026 11.601 26.091 11.601Z" fill="url(#paint1_linear_1_889)"/>
<path d="M10.2165 10.9863C11.205 10.9863 12.0063 10.185 12.0063 9.1965C12.0063 8.20804 11.205 7.40674 10.2165 7.40674C9.22806 7.40674 8.42676 8.20804 8.42676 9.1965C8.42676 10.185 9.22806 10.9863 10.2165 10.9863Z" fill="url(#paint2_linear_1_889)"/>
<path d="M27.008 20.0288C27.008 20.0288 26.3885 25.8775 30.5777 28.4171C31.3128 28.8645 31.1088 29.9733 30.2606 30.1306C27.0965 30.7158 22.0149 30.583 19.6572 24.6901" fill="url(#paint3_linear_1_889)"/>
<path d="M39.708 12.4419L40.5855 10.5516C41.3952 11.0746 42.6285 11.429 43.7423 11.429C44.9584 11.429 45.4136 11.1077 45.4136 10.602C45.4136 9.1165 39.927 10.6351 39.927 7.0057C39.927 5.28392 41.4802 4.06787 44.1313 4.06787C45.3805 4.06787 46.7651 4.35459 47.6267 4.86176L46.7493 6.73627C45.8545 6.2291 44.9598 6.06052 44.1328 6.06052C42.9513 6.06052 42.4441 6.43226 42.4441 6.90484C42.4441 8.45805 47.9308 6.95527 47.9308 10.5343C47.9308 12.2229 46.3603 13.4217 43.6429 13.4217C42.107 13.4217 40.5538 12.9995 39.7094 12.4419H39.708Z" fill="white"/>
<path d="M63.9168 4.20361V9.21766C63.9168 11.8846 62.414 13.422 59.6967 13.422C58.4475 13.422 57.4173 13.0848 56.7084 12.1382C56.0168 13.0502 55.0198 13.422 53.7028 13.422C50.9682 13.422 49.4985 11.8861 49.4985 9.21766V4.20361H52.1324V9.01451C52.1324 10.5173 52.6222 11.2089 53.736 11.2089C54.8497 11.2089 55.39 10.5173 55.39 9.01451V4.20361H58.0239V9.01451C58.0239 10.5173 58.5642 11.2089 59.6779 11.2089C60.7917 11.2089 61.2816 10.5173 61.2816 9.01451V4.20361H63.9154H63.9168Z" fill="white"/>
<path d="M66.2798 4.20361H68.9136V13.2865H66.2798V4.20361Z" fill="white"/>
<path d="M81.2545 8.74477C81.2545 11.5976 79.2791 13.4217 76.7303 13.4217C75.5993 13.4217 74.6699 13.0672 73.9956 12.3238V16.5612H71.3618V4.20331H73.8775V5.24934C74.5359 4.45545 75.5157 4.06787 76.7303 4.06787C79.2791 4.06787 81.2545 5.89195 81.2545 8.74477ZM78.5861 8.74477C78.5861 7.17428 77.5905 6.2291 76.2736 6.2291C74.9567 6.2291 73.9611 7.17428 73.9611 8.74477C73.9611 10.3153 74.9567 11.2604 76.2736 11.2604C77.5905 11.2604 78.5861 10.3153 78.5861 8.74477Z" fill="white"/>
<path d="M89.8632 10.4334L91.2637 11.9535C90.4194 12.9159 89.1529 13.4217 87.5161 13.4217C84.3766 13.4217 82.3335 11.4463 82.3335 8.74477C82.3335 6.04323 84.3939 4.06787 87.1963 4.06787C89.7624 4.06787 91.8732 5.75651 91.889 8.65976L85.169 9.95938C85.558 10.8541 86.4009 11.3094 87.5838 11.3094C88.5463 11.3094 89.2379 11.0227 89.8632 10.432V10.4334ZM84.9169 8.47534L89.3402 7.61373C89.0866 6.68584 88.2942 6.06052 87.1963 6.06052C85.8794 6.06052 84.9673 6.93798 84.9169 8.47534Z" fill="white"/>
<path d="M102.811 4.20359V11.7664C102.811 15.1423 101.039 16.6969 97.8652 16.6969C96.1938 16.6969 94.5729 16.2748 93.5269 15.4477L94.5729 13.5574C95.3322 14.1813 96.5137 14.5703 97.6462 14.5703C99.4184 14.5703 100.179 13.7432 100.179 12.105V11.801C99.4875 12.4926 98.5409 12.8471 97.4949 12.8471C95.2155 12.8471 93.6119 11.5806 93.6119 8.7609V4.20215H96.2457V8.37188C96.2457 9.90779 96.9214 10.5835 98.0856 10.5835C99.2498 10.5835 100.179 9.80693 100.179 8.13558V4.20215H102.813L102.811 4.20359Z" fill="white"/>
<path d="M114.476 4.20331V13.2862H111.96V12.2402C111.302 13.0341 110.34 13.4217 109.123 13.4217C106.557 13.4217 104.582 11.5976 104.582 8.74477C104.582 5.89195 106.557 4.06787 109.123 4.06787C110.237 4.06787 111.184 4.42231 111.842 5.16577V4.20331H114.476ZM111.893 8.74477C111.893 7.17428 110.88 6.2291 109.58 6.2291C108.281 6.2291 107.25 7.17428 107.25 8.74477C107.25 10.3153 108.263 11.2604 109.58 11.2604C110.897 11.2604 111.893 10.3153 111.893 8.74477Z" fill="url(#paint4_linear_1_889)"/>
<path d="M116.586 1.46917C116.586 0.642141 117.244 0.000976562 118.224 0.000976562C119.204 0.000976562 119.862 0.609002 119.862 1.41874C119.862 2.2962 119.204 2.93737 118.224 2.93737C117.244 2.93737 116.586 2.2962 116.586 1.46917ZM116.907 4.20384H119.541V13.2868H116.907V4.20384Z" fill="url(#paint5_linear_1_889)"/>
<path d="M67.4689 3.38016C68.4023 3.38016 69.159 2.62349 69.159 1.69008C69.159 0.756675 68.4023 0 67.4689 0C66.5355 0 65.7788 0.756675 65.7788 1.69008C65.7788 2.62349 66.5355 3.38016 67.4689 3.38016Z" fill="url(#paint6_linear_1_889)"/>
<path d="M40.7471 30.6968V23.7696H43.4487C44.0556 23.7696 44.5735 23.8653 45.0023 24.0566C45.4311 24.2479 45.761 24.525 45.9919 24.8879C46.2228 25.2507 46.3383 25.6828 46.3383 26.1842C46.3383 26.6856 46.2228 27.1178 45.9919 27.4806C45.761 27.8369 45.4311 28.1139 45.0023 28.3119C44.5735 28.5032 44.0556 28.5988 43.4487 28.5988H41.2914L41.7367 28.1337V30.6968H40.7471ZM41.7367 28.2327L41.2914 27.7379H43.419C44.0523 27.7379 44.5306 27.6027 44.8539 27.3322C45.1838 27.0617 45.3487 26.679 45.3487 26.1842C45.3487 25.6894 45.1838 25.3068 44.8539 25.0363C44.5306 24.7658 44.0523 24.6306 43.419 24.6306H41.2914L41.7367 24.1358V28.2327ZM46.3953 30.6968L49.5323 23.7696H50.512L53.6589 30.6968H52.6198L49.8192 24.3238H50.2151L47.4145 30.6968H46.3953ZM47.7312 28.965L47.9984 28.1733H51.8974L52.1844 28.965H47.7312ZM54.6922 30.6968V23.7696H57.3938C58.0007 23.7696 58.5186 23.8653 58.9475 24.0566C59.3763 24.2479 59.7061 24.525 59.937 24.8879C60.168 25.2507 60.2834 25.6828 60.2834 26.1842C60.2834 26.6856 60.168 27.1178 59.937 27.4806C59.7061 27.8369 59.3763 28.1106 58.9475 28.302C58.5186 28.4933 58.0007 28.5889 57.3938 28.5889H55.2365L55.6818 28.1337V30.6968H54.6922ZM59.3235 30.6968L57.562 28.1832H58.6209L60.4022 30.6968H59.3235ZM55.6818 28.2327L55.2365 27.7478H57.3641C57.9974 27.7478 58.4758 27.6125 58.799 27.3421C59.1289 27.065 59.2938 26.679 59.2938 26.1842C59.2938 25.6894 59.1289 25.3068 58.799 25.0363C58.4758 24.7658 57.9974 24.6306 57.3641 24.6306H55.2365L55.6818 24.1358V28.2327ZM63.1611 30.6968V24.6306H60.7861V23.7696H66.5158V24.6306H64.1408V30.6968H63.1611ZM67.5936 30.6968V23.7696H68.4051L72.9869 29.4598H72.5614V23.7696H73.551V30.6968H72.7395L68.1577 25.0066H68.5832V30.6968H67.5936ZM76.5249 26.7582H80.0875V27.5994H76.5249V26.7582ZM76.614 29.8358H80.6515V30.6968H75.6244V23.7696H80.513V24.6306H76.614V29.8358ZM82.2539 30.6968V23.7696H84.9555C85.5624 23.7696 86.0803 23.8653 86.5091 24.0566C86.938 24.2479 87.2678 24.525 87.4987 24.8879C87.7296 25.2507 87.8451 25.6828 87.8451 26.1842C87.8451 26.6856 87.7296 27.1178 87.4987 27.4806C87.2678 27.8369 86.938 28.1106 86.5091 28.302C86.0803 28.4933 85.5624 28.5889 84.9555 28.5889H82.7982L83.2435 28.1337V30.6968H82.2539ZM86.8852 30.6968L85.1237 28.1832H86.1826L87.9638 30.6968H86.8852ZM83.2435 28.2327L82.7982 27.7478H84.9258C85.5591 27.7478 86.0374 27.6125 86.3607 27.3421C86.6906 27.065 86.8555 26.679 86.8555 26.1842C86.8555 25.6894 86.6906 25.3068 86.3607 25.0363C86.0374 24.7658 85.5591 24.6306 84.9258 24.6306H82.7982L83.2435 24.1358V28.2327ZM91.4627 30.7759C90.9349 30.7759 90.4302 30.6968 89.9486 30.5384C89.467 30.3735 89.0876 30.1624 88.8106 29.9051L89.1767 29.1332C89.4406 29.3641 89.7771 29.5554 90.1861 29.7072C90.5951 29.8589 91.0206 29.9348 91.4627 29.9348C91.8651 29.9348 92.1917 29.8886 92.4424 29.7962C92.6931 29.7039 92.8778 29.5785 92.9965 29.4202C93.1153 29.2553 93.1747 29.0705 93.1747 28.866C93.1747 28.6285 93.0955 28.4372 92.9372 28.2921C92.7854 28.1469 92.5842 28.0315 92.3335 27.9457C92.0894 27.8533 91.8189 27.7742 91.522 27.7082C91.2252 27.6422 90.925 27.5664 90.6215 27.4806C90.3246 27.3882 90.0508 27.2728 89.8002 27.1342C89.5561 26.9957 89.3581 26.811 89.2064 26.5801C89.0547 26.3426 88.9788 26.0391 88.9788 25.6696C88.9788 25.3134 89.0712 24.9868 89.2559 24.69C89.4472 24.3865 89.7375 24.1457 90.1267 23.9676C90.5226 23.7828 91.0239 23.6905 91.6309 23.6905C92.0333 23.6905 92.4325 23.7432 92.8283 23.8488C93.2241 23.9544 93.5672 24.1061 93.8575 24.304L93.5309 25.0957C93.234 24.8978 92.9207 24.7559 92.5908 24.6702C92.2609 24.5778 91.941 24.5316 91.6309 24.5316C91.2417 24.5316 90.9217 24.5811 90.671 24.6801C90.4203 24.779 90.2356 24.911 90.1168 25.0759C90.0047 25.2408 89.9486 25.4255 89.9486 25.6301C89.9486 25.8742 90.0245 26.0688 90.1762 26.2139C90.3345 26.3591 90.5357 26.4745 90.7798 26.5603C91.0305 26.646 91.3043 26.7252 91.6012 26.7978C91.8981 26.8638 92.195 26.9396 92.4918 27.0254C92.7953 27.1112 93.0691 27.2233 93.3132 27.3619C93.5639 27.5004 93.7651 27.6851 93.9169 27.916C94.0686 28.1469 94.1445 28.4438 94.1445 28.8067C94.1445 29.1563 94.0488 29.4829 93.8575 29.7864C93.6662 30.0832 93.3693 30.324 92.9668 30.5088C92.571 30.6869 92.0696 30.7759 91.4627 30.7759Z" fill="white"/>
</g>
<defs>
<linearGradient id="paint0_linear_1_889" x1="-12.7519" y1="51.6211" x2="55.0908" y2="-25.7668" gradientUnits="userSpaceOnUse">
<stop stop-color="#8350CB"/>
<stop offset="1" stop-color="#FE6283"/>
</linearGradient>
<linearGradient id="paint1_linear_1_889" x1="23.0115" y1="14.108" x2="31.0766" y2="6.27846" gradientUnits="userSpaceOnUse">
<stop stop-color="#8350CB"/>
<stop offset="1" stop-color="#FE6283"/>
</linearGradient>
<linearGradient id="paint2_linear_1_889" x1="7.13701" y1="13.4933" x2="15.2021" y2="5.66371" gradientUnits="userSpaceOnUse">
<stop stop-color="#8350CB"/>
<stop offset="1" stop-color="#FE6283"/>
</linearGradient>
<linearGradient id="paint3_linear_1_889" x1="15.5599" y1="37.5942" x2="38.7942" y2="12.7648" gradientUnits="userSpaceOnUse">
<stop stop-color="#8350CB"/>
<stop offset="1" stop-color="#FE6283"/>
</linearGradient>
<linearGradient id="paint4_linear_1_889" x1="101.017" y1="19.9728" x2="122.094" y2="-1.67062" gradientUnits="userSpaceOnUse">
<stop stop-color="#8350CB"/>
<stop offset="1" stop-color="#FE6283"/>
</linearGradient>
<linearGradient id="paint5_linear_1_889" x1="115.405" y1="22.5918" x2="128.968" y2="19.3448" gradientUnits="userSpaceOnUse">
<stop stop-color="#8350CB"/>
<stop offset="1" stop-color="#FE6283"/>
</linearGradient>
<linearGradient id="paint6_linear_1_889" x1="64.5609" y1="5.74753" x2="72.1767" y2="-1.64595" gradientUnits="userSpaceOnUse">
<stop stop-color="#8350CB"/>
<stop offset="1" stop-color="#FE6283"/>
</linearGradient>
<clipPath id="clip0_1_889">
<rect width="122" height="31.4839" fill="white"/>
</clipPath>
</defs>
</svg>
