<svg width="84" height="84" viewBox="0 0 84 84" fill="none" xmlns="http://www.w3.org/2000/svg">
<rect width="84" height="84" rx="25" fill="#151922"/>
<path d="M27.1315 36.8054L27.3326 36.3477L27.1315 36.8054C27.4652 36.9521 27.8478 36.9521 28.1815 36.8054L30.4121 35.8254C30.5388 35.7698 30.6583 35.8025 30.7378 35.8784C30.8147 35.952 30.8334 36.0408 30.7888 36.1334L29.7631 38.2646C29.6027 38.5981 29.6027 38.9838 29.7631 39.3173L30.7888 41.4485C30.8334 41.5411 30.8147 41.6299 30.7378 41.7035C30.6583 41.7794 30.5388 41.8121 30.4121 41.7565L28.1815 40.7765C27.8478 40.6298 27.4652 40.6298 27.1315 40.7765L24.9009 41.7565C24.7742 41.8121 24.6547 41.7794 24.5753 41.7035C24.4983 41.6299 24.4796 41.5411 24.5242 41.4485L25.5499 39.3173L25.0993 39.1004L25.5499 39.3173C25.7104 38.9838 25.7104 38.5981 25.5499 38.2646L24.5242 36.1334C24.4796 36.0408 24.4983 35.952 24.5753 35.8784C24.6547 35.8025 24.7742 35.7698 24.9009 35.8254L27.1315 36.8054ZM51.2409 29.7863C52.6032 28.4845 54.8212 28.4845 56.1835 29.7863C57.5331 31.0757 57.5331 33.1564 56.1835 34.4459L53.5802 36.9333L48.6704 32.2422L51.2409 29.7863ZM26.0407 53.8641L46.5751 34.2442L51.4848 38.9353L30.9834 58.5237C29.621 59.8254 27.4031 59.8254 26.0407 58.5237C24.6912 57.2343 24.6912 55.1535 26.0407 53.8641ZM37.9712 24.5281C38.0979 24.4725 38.2173 24.5052 38.2968 24.5811C38.3738 24.6547 38.3924 24.7435 38.3478 24.8361L37.3222 26.9674C37.1617 27.3008 37.1617 27.6865 37.3222 28.02L38.3478 30.1512C38.3924 30.2439 38.3738 30.3327 38.2968 30.4062C38.2173 30.4821 38.0979 30.5149 37.9712 30.4592L35.7406 29.4792C35.4068 29.3326 35.0243 29.3326 34.6905 29.4792L32.4599 30.4592C32.3332 30.5149 32.2137 30.4821 32.1343 30.4062C32.0573 30.3327 32.0387 30.2439 32.0832 30.1513L33.1089 28.02C33.2694 27.6865 33.2694 27.3008 33.1089 26.9674L32.0832 24.8361C32.0387 24.7435 32.0573 24.6547 32.1343 24.5811C32.2137 24.5052 32.3332 24.4725 32.4599 24.5281L34.6905 25.5081C35.0243 25.6548 35.4068 25.6548 35.7406 25.5081L37.9712 24.5281ZM59.0991 45.0854C59.2258 45.0297 59.3453 45.0624 59.4247 45.1383C59.5017 45.2119 59.5204 45.3007 59.4758 45.3933L58.4501 47.5246C58.2896 47.8581 58.2896 48.2437 58.4501 48.5772L59.4758 50.7085C59.5204 50.8011 59.5017 50.8899 59.4247 50.9635C59.3453 51.0394 59.2258 51.0721 59.0991 51.0164L56.8685 50.0364C56.5348 49.8898 56.1522 49.8898 55.8185 50.0364L53.5879 51.0164C53.4612 51.0721 53.3417 51.0394 53.2622 50.9635C53.1853 50.8899 53.1666 50.8011 53.2112 50.7085L54.2369 48.5772C54.3973 48.2437 54.3973 47.8581 54.2369 47.5246L53.2112 45.3933C53.1666 45.3007 53.1853 45.2119 53.2622 45.1383C53.3417 45.0624 53.4612 45.0297 53.5879 45.0854L55.8185 46.0654C56.1522 46.212 56.5348 46.212 56.8685 46.0654L59.0991 45.0854Z" fill="url(#paint0_linear_1883_2627)" stroke="url(#paint1_linear_1883_2627)"/>
<defs>
<linearGradient id="paint0_linear_1883_2627" x1="24.6207" y1="59" x2="61.1819" y2="55.9195" gradientUnits="userSpaceOnUse">
<stop stop-color="#9E54BB"/>
<stop offset="1" stop-color="#FE6283"/>
</linearGradient>
<linearGradient id="paint1_linear_1883_2627" x1="11.0287" y1="85.2134" x2="92.1405" y2="6.47004" gradientUnits="userSpaceOnUse">
<stop stop-color="#8350CB"/>
<stop offset="1" stop-color="#FE6283"/>
</linearGradient>
</defs>
</svg>
